IKResults
version=1
nRows=16
nColumns=44
inDegrees=yes

Units are S.I. units (second, meters, Newtons, ...)
Angles are in degrees.

endheader
time	ground_spine_rot_x	ground_spine_rot_y	ground_spine_rot_z	ground_spine_tx	ground_spine_ty	ground_spine_tz	clav_prot	clav_elev	scapula_abduction	scapula_elevation	scapula_upward_rot	scapula_winging	plane_elv	shoulder_elv	axial_rot	elbow_flexion	pro_sup	clav_prot_l	clav_elev_l	pitch2	roll2	yaw2	aux7jnt_r3	aux7jnt_r1	aux7jnt_r2	aux6jnt_r3	aux6jnt_r1	aux6jnt_r2	aux5jnt_r3	aux5jnt_r1	aux5jnt_r2	aux4jnt_r3	aux4jnt_r1	aux4jnt_r2	aux3jnt_r3	aux3jnt_r1	aux3jnt_r2	pitch1	roll1	yaw1	aux1jnt_r3	aux1jnt_r1	aux1jnt_r2
     44.06000000	     -0.69269325	     -3.02095531	     -0.44040299	     -0.81810970	      1.09602532	      0.91637754	    -19.42835463	     -1.61306704	     12.98727535	    -15.83865845	     11.99803617	     14.68411864	    -69.99543374	     38.19320461	     50.91697081	      0.00000000	     34.32000000	     30.42326055	     -1.16071730	      0.09608434	      0.10020319	      0.01782721	      1.02947835	      0.78654642	      0.19202767	      1.21114803	      0.90137213	      0.22369168	      1.21114803	      1.24010255	      0.22369168	      0.90836102	      1.24010255	      0.22369168	      0.60557401	      1.12528012	      0.09601384	     -0.20117807	      0.05446838	     -0.03708309	     -6.40881671	      1.56040402	     -0.23584268
     44.07000000	     -0.59756039	     -2.96491864	     -0.47733943	     -0.81828769	      1.09604734	      0.91592076	    -19.57723151	     -1.56013129	     12.74369459	    -15.80726449	     11.99845547	     14.80126305	    -69.84947446	     38.04114395	     54.29512544	      0.00000000	     34.32000000	     30.42326055	     -1.16071730	      0.09679160	      0.09794041	      0.02339649	      1.03705621	      0.76878469	      0.25201781	      1.22006314	      0.88101741	      0.29357376	      1.22006314	      1.21209865	      0.29357376	      0.91504736	      1.21209865	      0.29357376	      0.61003157	      1.09986914	      0.12600890	     -0.20187833	      0.05454416	     -0.04513320	     -6.43112449	      1.56257497	     -0.28704010
     44.08000000	     -0.55255587	     -2.98402767	     -0.49191071	     -0.81835284	      1.09606080	      0.91580074	    -19.55222668	     -1.56669953	     12.78355672	    -15.81028241	     11.99798447	     14.78117889	    -69.81765049	     38.05077374	     53.07259641	      0.00000000	     34.32000000	     30.42326055	     -1.16071730	      0.09666738	      0.09722491	      0.02741211	      1.03572528	      0.76316835	      0.29527245	      1.21849735	      0.87458116	      0.34396080	      1.21849735	      1.20324369	      0.34396080	      0.91387301	      1.20324369	      0.34396080	      0.60924867	      1.09183407	      0.14763623	     -0.20172340	      0.05435340	     -0.04871448	     -6.42618877	      1.55711021	     -0.30981649
     44.09000000	     -0.50508151	     -2.96082342	     -0.51810190	     -0.81843393	      1.09601523	      0.91563201	    -19.61509202	     -1.54672099	     12.68054202	    -15.79890785	     11.99733870	     14.83133947	    -69.53368404	     38.00416715	     51.48901156	      0.00000000	     34.32000000	     30.42326055	     -1.16071730	      0.09825533	      0.09497211	      0.02498267	      1.05273903	      0.74548502	      0.26910341	      1.23851347	      0.85431629	      0.31347666	      1.23851347	      1.17536340	      0.31347666	      0.92888511	      1.17536340	      0.31347666	      0.61925674	      1.06653525	      0.13455171	     -0.20319032	      0.05570782	     -0.04607699	     -6.47291991	      1.59591161	     -0.29304244
     44.10000000	     -0.45477533	     -2.99196379	     -0.57092676	     -0.81881801	      1.09599857	      0.91547435	    -19.67407578	     -1.67128162	     12.63047002	    -15.92041537	     11.99783972	     14.91111520	    -67.76212437	     37.74478370	     48.24469525	      0.00000000	     34.32000000	     30.42326055	     -1.16071730	      0.09558437	      0.08866412	      0.02156415	      1.02412157	      0.69597030	      0.23228046	      1.20484596	      0.79757306	      0.27058187	      1.20484596	      1.09729639	      0.27058187	      0.90363447	      1.09729639	      0.27058187	      0.60242298	      0.99569655	      0.11614023	     -0.19835032	      0.06354308	     -0.04015609	     -6.31873451	      1.82037516	     -0.25538648
     44.11000000	     -0.42197092	     -2.95638573	     -0.53642088	     -0.81847632	      1.09602104	      0.91537159	    -19.62266888	     -1.54899441	     12.67089807	    -15.80226908	     11.99849358	     14.83821817	    -69.78564500	     38.01405806	     54.40426286	      0.00000000	     34.32000000	     30.42326055	     -1.16071730	      0.09796276	      0.09327394	      0.02439586	      1.04960435	      0.73215522	      0.26278254	      1.23482562	      0.83904051	      0.30611353	      1.23482562	      1.15434707	      0.30611353	      0.92611921	      1.15434707	      0.30611353	      0.61741281	      1.04746484	      0.13139127	     -0.20358842	      0.05508475	     -0.04465426	     -6.48560193	      1.57806170	     -0.28399410
     44.12000000	     -0.39535706	     -2.95282673	     -0.56613316	     -0.81862294	      1.09599932	      0.91532437	    -19.62496603	     -1.57429025	     12.67566465	    -15.82589567	     11.99877854	     14.84592040	    -69.63421473	     38.01623146	     53.37371632	      0.00000000	     34.32000000	     30.42326055	     -1.16071730	      0.09893841	      0.09316246	      0.02688660	      1.06005777	      0.73128010	      0.28961180	      1.24712374	      0.83803764	      0.33736674	      1.24712374	      1.15296733	      0.33736674	      0.93534280	      1.15296733	      0.33736674	      0.62356187	      1.04621285	      0.14480590	     -0.20402205	      0.05528796	     -0.04596719	     -6.49941561	      1.58388351	     -0.29234415
     44.13000000	     -0.33647825	     -2.94882317	     -0.54849753	     -0.81854406	      1.09600122	      0.91500434	    -19.66672287	     -1.47490515	     12.57880212	    -15.73880545	     11.99745029	     14.85963948	    -68.26240956	     37.79491250	     50.88671352	      0.00000000	     34.32000000	     30.42326055	     -1.16071730	      0.08706085	      0.10522927	      0.03547689	      0.93279785	      0.82599869	      0.38214303	      1.09740655	      0.94658393	      0.44515572	      1.09740655	      1.30230468	      0.44515572	      0.82305491	      1.30230468	      0.44515572	      0.54870327	      1.18172289	      0.19107152	     -0.18729764	      0.03491713	     -0.05634490	     -5.96663553	      1.00030206	     -0.35834474
     44.14000000	     -0.34563314	     -2.99821538	     -0.57508260	     -0.81851351	      1.09593668	      0.91525199	    -19.59268058	     -1.59450423	     12.73052153	    -15.84047596	     11.99796287	     14.82263668	    -69.59092675	     38.04803444	     51.31948748	      0.00000000	     34.32000000	     30.42326055	     -1.16071730	      0.09999505	      0.09480345	      0.03681475	      1.07137901	      0.74416107	      0.39655400	      1.26044281	      0.85279906	      0.46194296	      1.26044281	      1.17327600	      0.46194296	      0.94533211	      1.17327600	      0.46194296	      0.63022140	      1.06464112	      0.19827700	     -0.20434847	      0.05406676	     -0.05345169	     -6.50981420	      1.54889865	     -0.33994438
     44.15000000	     -0.32193304	     -2.99920892	     -0.57767168	     -0.81845616	      1.09595997	      0.91523668	    -19.56944165	     -1.60595295	     12.77004896	    -15.84846786	     11.99835015	     14.80506688	    -69.85797463	     38.09093918	     54.01716915	      0.00000000	     34.32000000	     30.42326055	     -1.16071730	      0.09997009	      0.09447179	      0.03622771	      1.07111151	      0.74155771	      0.39023064	      1.26012810	      0.84981565	      0.45457692	      1.26012810	      1.16917144	      0.45457692	      0.94509608	      1.16917144	      0.45457692	      0.63006405	      1.06091661	      0.19511532	     -0.20256345	      0.05478709	     -0.04977299	     -6.45294989	      1.56953464	     -0.31654844
     44.16000000	     -0.21568865	     -3.00437075	     -0.54002328	     -0.81821415	      1.09590905	      0.91468817	    -19.56097335	     -1.34541976	     12.69929256	    -15.60756586	     11.99687882	     14.73864745	    -67.81128680	     37.94230028	     51.38977990	      0.00000000	     34.32000000	     30.42326055	     -1.16071730	      0.09205763	      0.08735547	      0.03316424	      0.98633497	      0.68569808	      0.35723207	      1.16039124	      0.78580122	      0.41613712	      1.16039124	      1.08110077	      0.41613712	      0.87029343	      1.08110077	      0.41613712	      0.58019562	      0.98100049	      0.17861604	     -0.19425477	      0.06102140	     -0.04464737	     -6.18826491	      1.74813444	     -0.28395027
     44.17000000	     -0.25394955	     -2.99241046	     -0.59721310	     -0.81844625	      1.09591443	      0.91502997	    -19.54992014	     -1.62868179	     12.80723375	    -15.86717726	     11.99853565	     14.79329674	    -69.93224245	     38.17177009	     52.16074493	      0.00000000	     34.32000000	     30.42326055	     -1.16071730	      0.10004150	      0.09527714	      0.02996335	      1.07187665	      0.74787930	      0.32275337	      1.26102826	      0.85706010	      0.37597312	      1.26102826	      1.17913832	      0.37597312	      0.94577120	      1.17913832	      0.37597312	      0.63051413	      1.06996064	      0.16137669	     -0.20223675	      0.05372480	     -0.04096133	     -6.44254243	      1.53910219	     -0.26050767
     44.18000000	     -0.15970725	     -2.90833636	     -0.64438833	     -0.81863237	      1.09595323	      0.91448530	    -19.67387372	     -1.58323224	     12.60270565	    -15.83939821	     11.99788925	     14.89056559	    -69.49635699	     38.17757053	     49.50139208	      0.00000000	     34.32000000	     30.42326055	     -1.16071730	      0.10365735	      0.09339739	      0.02700481	      1.11061802	      0.73312418	      0.29088517	      1.30660623	      0.84015093	      0.33885008	      1.30660623	      1.15587477	      0.33885008	      0.97995467	      1.15587477	      0.33885008	      0.65330311	      1.04885109	      0.14544258	     -0.20470243	      0.05391363	     -0.03813442	     -6.52109024	      1.54451180	     -0.24252893
     44.19000000	     -0.12332528	     -2.91967799	     -0.62800670	     -0.81851880	      1.09599475	      0.91438921	    -19.59701910	     -1.59672289	     12.72427102	    -15.84289074	     11.99757069	     14.82709171	    -69.97800549	     38.28982768	     50.38647623	      0.00000000	     34.32000000	     30.42326055	     -1.16071730	      0.10083191	      0.09309510	      0.02751595	      1.08034534	      0.73075135	      0.29639092	      1.27099140	      0.83743169	      0.34526368	      1.27099140	      1.15213366	      0.34526368	      0.95324355	      1.15213366	      0.34526368	      0.63549570	      1.04545638	      0.14819546	     -0.20171723	      0.05450765	     -0.03654014	     -6.42599233	      1.56152915	     -0.23238960
     44.20000000	     -0.08739551	     -2.92940681	     -0.63347145	     -0.81844987	      1.09597853	      0.91427882	    -19.64685998	     -1.58530337	     12.64505199	    -15.83832178	     11.99832615	     14.86746425	    -69.80617197	     38.15604422	     54.13678419	      0.00000000	     34.32000000	     30.42326055	     -1.16071730	      0.10155018	      0.09452517	      0.03208913	      1.08804118	      0.74197676	      0.34565149	      1.28004531	      0.85029587	      0.40264698	      1.28004531	      1.16983213	      0.40264698	      0.96003398	      1.16983213	      0.40264698	      0.64002265	      1.06151612	      0.17282574	     -0.20172390	      0.05403925	     -0.03896911	     -6.42620495	      1.54811036	     -0.24783742
     44.21000000	     -0.05179098	     -2.90602966	     -0.64729458	     -0.81843110	      1.09593569	      0.91411564	    -19.71629732	     -1.58673638	     12.53851295	    -15.84734930	     11.99748639	     14.92825362	    -69.58262034	     38.12720169	     52.84812863	      0.00000000	     34.32000000	     30.42326055	     -1.16071730	      0.10356753	      0.09506183	      0.03065117	      1.10965571	      0.74618924	      0.33016226	      1.30547411	      0.85512332	      0.38460369	      1.30547411	      1.17647371	      0.38460369	      0.97910558	      1.17647371	      0.38460369	      0.65273705	      1.06754275	      0.16508113	     -0.20338757	      0.05424634	     -0.03617330	     -6.47920360	      1.55404325	     -0.23005655
